<svg width="30" height="30" viewBox="0 0 30 30" fill="none" xmlns="http://www.w3.org/2000/svg">
<rect width="29.9769" height="30" rx="10" fill="#C4C4C4" fill-opacity="0.1"/>
<g clip-path="url(#clip0_34_589)">
<path d="M22.4819 13.3333C22.4819 19.1667 14.9876 24.1667 14.9876 24.1667C14.9876 24.1667 7.49341 19.1667 7.49341 13.3333C7.49341 11.3442 8.28298 9.43656 9.68842 8.03004C11.0939 6.62352 13 5.83334 14.9876 5.83334C16.9752 5.83334 18.8814 6.62352 20.2869 8.03004C21.6923 9.43656 22.4819 11.3442 22.4819 13.3333Z" stroke="#17C2EC" stroke-width="2" stroke-linecap="round" stroke-linejoin="round"/>
<path d="M14.9876 15.8333C16.3672 15.8333 17.4857 14.7141 17.4857 13.3333C17.4857 11.9526 16.3672 10.8333 14.9876 10.8333C13.6079 10.8333 12.4895 11.9526 12.4895 13.3333C12.4895 14.7141 13.6079 15.8333 14.9876 15.8333Z" stroke="#17C2EC" stroke-width="2" stroke-linecap="round" stroke-linejoin="round"/>
</g>
<defs>
<clipPath id="clip0_34_589">
<rect width="19.9846" height="20" fill="white" transform="translate(4.99536 5)"/>
</clipPath>
</defs>
</svg>
